<svg xmlns="http://www.w3.org/2000/svg" width="1200" height="800" viewBox="0 0 1200 800">
  <rect width="1200" height="800" fill="#f9fafb"/>

  <!-- Header -->
  <rect x="0" y="0" width="1200" height="60" fill="white" stroke="#e5e7eb" stroke-width="1"/>
  <rect x="20" y="14" width="32" height="32" rx="8" fill="#4f46e5"/>
  <text x="36" y="36" font-family="system-ui,sans-serif" font-size="16" font-weight="800" fill="white" text-anchor="middle">L</text>
  <text x="62" y="35" font-family="system-ui,sans-serif" font-size="16" font-weight="700" fill="#111827">LEDGIT</text>
  <text x="120" y="35" font-family="system-ui,sans-serif" font-size="12" fill="#9ca3af">Verifiable Human-Authorized Audit Trails</text>

  <!-- Agent header -->
  <text x="30" y="100" font-family="system-ui,sans-serif" font-size="22" font-weight="700" fill="#111827">alice.ledgit.eth</text>
  <text x="30" y="122" font-family="system-ui,sans-serif" font-size="13" fill="#9ca3af">Topic: </text><text x="72" y="122" font-family="monospace" font-size="13" fill="#9ca3af">0.0.9219676</text>
  <text x="280" y="122" font-family="system-ui,sans-serif" font-size="12" fill="#d1d5db">·</text>
  <text x="295" y="122" font-family="system-ui,sans-serif" font-size="13" fill="#9ca3af">15 actions</text>

  <!-- Stats -->
  <rect x="30" y="145" rx="999" width="60" height="24" fill="#fee2e2"/>
  <text x="50" y="161" font-family="system-ui,sans-serif" font-size="11" font-weight="600" fill="#dc2626" text-anchor="middle">4 High</text>
  <rect x="98" y="145" rx="999" width="68" height="24" fill="#fef3c7"/>
  <text x="120" y="161" font-family="system-ui,sans-serif" font-size="11" font-weight="600" fill="#d97706" text-anchor="middle">2 Medium</text>
  <rect x="174" y="145" rx="999" width="60" height="24" fill="#d1fae5"/>
  <text x="194" y="161" font-family="system-ui,sans-serif" font-size="11" font-weight="600" fill="#059669" text-anchor="middle">9 Low</text>

  <!-- Enable Live Updates button -->
  <rect x="1060" y="145" rx="999" width="120" height="24" fill="#f3f4f6"/>
  <text x="1120" y="161" font-family="system-ui,sans-serif" font-size="11" font-weight="600" fill="#6b7280" text-anchor="middle">Enable Live Updates</text>

  <!-- Month header -->
  <text x="30" y="205" font-family="system-ui,sans-serif" font-size="16" font-weight="700" fill="#374151">June 2026</text>
  <line x1="30" y1="215" x2="600" y2="215" stroke="#e5e7eb" stroke-width="1"/>

  <!-- Day card -->
  <rect x="30" y="235" width="500" height="55" rx="12" fill="white" stroke="#e5e7eb" stroke-width="1"/>
  <text x="50" y="262" font-family="system-ui,sans-serif" font-size="14" font-weight="600" fill="#1f2937">Saturday, June 13, 2026</text>
  <text x="460" y="262" font-family="system-ui,sans-serif" font-size="12" fill="#9ca3af">15 actions</text>
  <rect x="50" y="272" rx="999" width="42" height="16" fill="#fee2e2"/>
  <text x="62" y="284" font-family="system-ui,sans-serif" font-size="9" font-weight="600" fill="#dc2626" text-anchor="middle">4 high</text>
  <rect x="96" y="272" rx="999" width="52" height="16" fill="#fef3c7"/>
  <text x="112" y="284" font-family="system-ui,sans-serif" font-size="9" font-weight="600" fill="#d97706" text-anchor="middle">2 medium</text>
  <rect x="152" y="272" rx="999" width="42" height="16" fill="#d1fae5"/>
  <text x="164" y="284" font-family="system-ui,sans-serif" font-size="9" font-weight="600" fill="#059669" text-anchor="middle">9 low</text>

  <!-- Action card 11 (compliant high) -->
  <rect x="60" y="310" width="460" height="90" rx="12" fill="white" stroke="#34d399" stroke-width="2" stroke-dasharray="0"/>
  <rect x="60" y="310" width="6" height="90" rx="3" fill="#34d399"/>
  <rect x="60" y="310" width="6" height="90" fill="#34d399"/>
  <circle cx="80" cy="340" r="8" fill="#34d399"/>
  <text x="80" y="335" font-family="monospace" font-size="11" fill="#9ca3af">#11</text>
  <rect x="110" y="325" rx="999" width="55" height="20" fill="#fee2e2"/>
  <text x="130" y="338" font-family="system-ui,sans-serif" font-size="10" font-weight="600" fill="#dc2626" text-anchor="middle">HIGH</text>
  <text x="82" y="370" font-family="system-ui,sans-serif" font-size="13" font-weight="600" fill="#111827">Send 1 HBAR to 0.0.3568415 for demo</text>
  <text x="82" y="388" font-family="system-ui,sans-serif" font-size="11" fill="#9ca3af">hbar_transfer · 03b825ce72ecb513</text>
  <text x="82" y="408" font-family="system-ui,sans-serif" font-size="12" fill="#059669" font-weight="600">✅ Ledger Signature Verified</text>

  <!-- Action card 12 (compliant medium) -->
  <rect x="60" y="420" width="460" height="90" rx="12" fill="white" stroke="#34d399" stroke-width="2"/>
  <rect x="60" y="420" width="6" height="90" rx="3" fill="#34d399"/>
  <circle cx="80" cy="450" r="8" fill="#34d399"/>
  <text x="80" y="445" font-family="monospace" font-size="11" fill="#9ca3af">#15</text>
  <rect x="110" y="435" rx="999" width="65" height="20" fill="#fef3c7"/>
  <text x="136" y="448" font-family="system-ui,sans-serif" font-size="10" font-weight="600" fill="#d97706" text-anchor="middle">MEDIUM</text>
  <text x="82" y="480" font-family="system-ui,sans-serif" font-size="13" font-weight="600" fill="#111827">Called increment on 0.0.9224072</text>
  <text x="82" y="498" font-family="system-ui,sans-serif" font-size="11" fill="#9ca3af">contract_call</text>
  <text x="82" y="515" font-family="system-ui,sans-serif" font-size="12" fill="#059669" font-weight="600">✅ Ledger Signature Verified</text>
</svg>
